<?xml version="1.0" standalone="no"?>
<!DOCTYPE svg PUBLIC "-//W3C//DTD SVG 20010904//EN"
 "http://www.w3.org/TR/2001/REC-SVG-20010904/DTD/svg10.dtd">
<svg version="1.0" xmlns="http://www.w3.org/2000/svg"
 width="88.000000pt" height="88.000000pt" viewBox="0 0 88.000000 88.000000"
 preserveAspectRatio="xMidYMid meet">
<metadata>
Created by potrace 1.11, written by Peter Selinger 2001-2013
</metadata>
<g transform="translate(0.000000,88.000000) scale(0.100000,-0.100000)"
fill="#000000" stroke="none">
<path d="M153 872 l-33 -3 0 -180 0 -179 66 0 c108 0 157 36 157 115 0 22 -8
44 -22 59 -17 18 -20 28 -13 47 4 13 7 30 6 37 -1 6 -2 21 -3 31 -3 49 -73 81
-158 73z m92 -72 c30 -25 12 -66 -34 -75 -22 -4 -38 17 -35 45 1 8 2 22 3 32
1 19 42 18 66 -2z m25 -150 c11 -11 20 -26 20 -33 0 -37 -94 -70 -108 -38 -4
9 -6 25 -6 36 1 11 2 28 3 38 1 25 65 23 91 -3z"/>
<path d="M479 857 c-101 -50 -131 -199 -57 -283 54 -61 121 -81 201 -61 47 12
113 74 121 115 14 63 14 75 0 121 -32 109 -159 161 -265 108z m151 -50 c33
-16 70 -73 70 -109 0 -78 -59 -138 -138 -138 -85 0 -145 91 -116 176 28 81
102 110 184 71z"/>
<path d="M11 466 c-17 -20 -4 -56 18 -56 28 0 47 28 34 48 -14 23 -37 26 -52
8z"/>
<path d="M822 471 c-20 -12 -11 -55 12 -59 27 -6 48 25 35 49 -10 20 -26 24
-47 10z"/>
<path d="M167 462 c-39 -3 -48 -6 -45 -20 3 -15 31 -17 312 -17 169 0 313 3
319 7 9 5 9 10 0 19 -10 10 -460 19 -586 11z"/>
<path d="M172 370 c-37 -22 -52 -48 -52 -87 0 -38 30 -69 96 -98 58 -26 70
-41 60 -80 -13 -53 -97 -51 -121 3 -10 23 -30 28 -54 13 -21 -14 2 -61 42 -89
81 -55 197 -1 197 92 0 49 -22 76 -87 107 -67 32 -83 51 -66 78 15 24 49 25
73 1 16 -16 24 -18 40 -10 11 6 20 15 20 21 0 15 -51 59 -69 60 -9 0 -23 2
-33 4 -9 2 -30 -5 -46 -15z"/>
<path d="M520 378 c-110 -30 -169 -150 -125 -255 20 -48 41 -71 89 -95 52 -27
139 -22 183 10 l32 22 3 -22 c3 -23 24 -31 43 -17 9 6 14 308 6 352 0 4 -12 7
-26 7 -18 0 -25 -5 -25 -20 0 -20 0 -20 -37 -2 -49 25 -99 31 -143 20z m96
-58 c62 -24 96 -98 75 -163 -37 -111 -189 -125 -240 -21 -54 109 52 227 165
184z"/>
</g>
</svg>
